<?xml version="1.0" encoding="UTF-8" standalone="no"?>
<!-- Created with Inkscape (http://www.inkscape.org/) -->

<svg
   xmlns:dc="http://purl.org/dc/elements/1.1/"
   xmlns:cc="http://creativecommons.org/ns#"
   xmlns:rdf="http://www.w3.org/1999/02/22-rdf-syntax-ns#"
   xmlns:svg="http://www.w3.org/2000/svg"
   xmlns="http://www.w3.org/2000/svg"
   xmlns:sodipodi="http://sodipodi.sourceforge.net/DTD/sodipodi-0.dtd"
   xmlns:inkscape="http://www.inkscape.org/namespaces/inkscape"
   id="svg3511"
   version="1.1"
   inkscape:version="0.91 r13725"
   width="640"
   height="640"
   viewBox="0 0 640 640"
   sodipodi:docname="logo.svg"
   inkscape:export-filename="/Users/adam/workingCopies/engimo/static/favicon.png"
   inkscape:export-xdpi="2.25"
   inkscape:export-ydpi="2.25">
  <metadata
     id="metadata3517">
    <rdf:RDF>
      <cc:Work
         rdf:about="">
        <dc:format>image/svg+xml</dc:format>
        <dc:type
           rdf:resource="http://purl.org/dc/dcmitype/StillImage" />
        <dc:title />
      </cc:Work>
    </rdf:RDF>
  </metadata>
  <defs
     id="defs3515" />
  <sodipodi:namedview
     pagecolor="#ffffff"
     bordercolor="#666666"
     borderopacity="1"
     objecttolerance="10"
     gridtolerance="10"
     guidetolerance="10"
     inkscape:pageopacity="0"
     inkscape:pageshadow="2"
     inkscape:window-width="1680"
     inkscape:window-height="925"
     id="namedview3513"
     showgrid="false"
     inkscape:zoom="1"
     inkscape:cx="171.95442"
     inkscape:cy="268.74369"
     inkscape:window-x="0"
     inkscape:window-y="1"
     inkscape:window-maximized="1"
     inkscape:current-layer="svg3511" />
  <g
     transform="translate(-19.723656,0)"
     id="g3456">
    <path
       inkscape:connector-curvature="0"
       id="path3458"
       d="m 314.81992,642.36177 c -2.0625,-0.28427 -10.5,-1.41792 -18.75,-2.51922 C 169.41438,622.93522 62.597992,526.6585 31.329495,401.22427 c -7.383191,-29.61782 -8.98207,-43.52468 -8.98207,-78.125 0,-34.60031 1.598879,-48.50717 8.98207,-78.125 C 59.764061,130.90842 149.50407,41.168419 263.56992,12.733853 c 29.61782,-7.3831909 43.52468,-8.9820701 78.125,-8.9820701 34.60031,0 48.50717,1.5988792 78.125,8.9820701 114.06585,28.434566 203.80585,118.174567 232.24042,232.240417 7.38319,29.61783 8.98206,43.52469 8.98206,78.125 0,34.60032 -1.59887,48.50718 -8.98206,78.125 -28.50066,114.33099 -118.59251,204.22175 -232.86542,232.34569 -27.78582,6.83841 -40.97098,8.45843 -72.5,8.90781 -15.46875,0.22049 -29.8125,0.16828 -31.875,-0.116 z m -106.38917,-139.575 c 0.32953,-2.23437 1.2226,-23.46875 1.98464,-47.1875 2.47624,-77.07468 6.64153,-155.93161 10.05945,-190.44493 0.67104,-6.77598 1.25529,-13.52598 1.29833,-15 0.15822,-5.41908 48.6808,101.22751 86.23425,189.53216 l 7.85146,18.46224 25.52071,-0.33724 25.52071,-0.33723 5.04264,-11.875 c 13.97529,-32.91068 56.37683,-128.64478 71.08214,-160.48916 13.65826,-29.57695 16.83889,-35.57307 17.57106,-33.125 0.85786,2.86834 3.41768,35.69808 6.08101,77.98916 1.18327,18.78899 4.10759,86.04673 5.62514,129.375 0.37324,10.65625 1.00725,25.70313 1.40893,33.4375 l 0.73032,14.0625 33.0669,0 33.06689,0 -0.71141,-10.3125 c -0.39129,-5.67187 -1.56564,-26.34375 -2.60967,-45.9375 -5.52383,-103.66803 -13.95235,-210.34508 -23.23377,-294.0625 l -1.48976,-13.4375 -30.7304,0.009 -30.7304,0.009 -10.75932,20.30434 C 420.16479,201.43907 390.16587,265.8677 359.70027,336.54779 343.2728,374.65942 342.23999,376.67855 340.86222,373.3759 315.45382,312.46876 258.12178,189.13702 239.19123,154.66177 l -6.34903,-11.5625 -31.17483,0 -31.17483,0 -0.62964,2.8125 c -1.83308,8.18812 -9.69556,86.99738 -13.74896,137.8125 -4.16677,52.23629 -11.2978,166.39175 -13.45021,215.31478 l -0.34381,7.81477 32.75586,-0.002 32.75585,-0.002 0.59912,-4.0625 z"
       style="fill:#fef5d0" />
    <path
       inkscape:connector-curvature="0"
       id="path3460"
       d="M 311.69492,641.74215 C 250.2639,635.86524 189.06942,610.9209 140.92957,572.13414 66.103343,511.84587 21.697005,419.09666 21.697005,323.09927 c 0,-72.15193 25.527676,-144.37365 70.963053,-200.76535 C 152.94832,47.507701 245.69753,3.1013631 341.69492,3.1013631 c 72.15193,0 144.37365,25.5276759 200.76535,70.9630529 74.82622,60.288254 119.23256,153.037474 119.23256,249.034854 0,72.15194 -25.52768,144.37365 -70.96305,200.76535 -54.19075,67.25835 -133.90701,109.82042 -220.90986,117.94807 -15.65149,1.46213 -42.44402,1.42962 -58.125,-0.0705 z M 208.43075,502.78677 c 0.32953,-2.23437 1.2226,-23.46875 1.98464,-47.1875 2.47624,-77.07468 6.64153,-155.93161 10.05945,-190.44493 0.67104,-6.77598 1.25529,-13.52598 1.29833,-15 0.15822,-5.41908 48.6808,101.22751 86.23425,189.53216 l 7.85146,18.46224 25.52071,-0.33724 25.52071,-0.33723 5.04264,-11.875 c 13.97529,-32.91068 56.37683,-128.64478 71.08214,-160.48916 13.65826,-29.57695 16.83889,-35.57307 17.57106,-33.125 0.85786,2.86834 3.41768,35.69808 6.08101,77.98916 1.18327,18.78899 4.10759,86.04673 5.62514,129.375 0.37324,10.65625 1.00725,25.70313 1.40893,33.4375 l 0.73032,14.0625 33.0669,0 33.06689,0 -0.71141,-10.3125 c -0.39129,-5.67187 -1.56564,-26.34375 -2.60967,-45.9375 -5.52383,-103.66803 -13.95235,-210.34508 -23.23377,-294.0625 l -1.48976,-13.4375 -30.7304,0.009 -30.7304,0.009 -10.75932,20.30434 C 420.16479,201.43907 390.16587,265.8677 359.70027,336.54779 343.2728,374.65942 342.23999,376.67855 340.86222,373.3759 315.45382,312.46876 258.12178,189.13702 239.19123,154.66177 l -6.34903,-11.5625 -31.17483,0 -31.17483,0 -0.62964,2.8125 c -1.83308,8.18812 -9.69556,86.99738 -13.74896,137.8125 -4.16677,52.23629 -11.2978,166.39175 -13.45021,215.31478 l -0.34381,7.81477 32.75586,-0.002 32.75585,-0.002 0.59912,-4.0625 z"
       style="fill:#feeeb1" />
    <path
       inkscape:connector-curvature="0"
       id="path3462"
       d="m 319.81992,642.3666 c -16.74593,-1.66681 -30.21147,-3.53503 -40.625,-5.6363 C 218.4208,624.46706 163.88484,595.72755 119.34788,552.49364 66.210891,500.91132 34.519483,437.36537 23.958707,361.22427 c -2.013829,-14.51931 -2.013829,-61.73068 0,-76.25 C 34.519483,208.83317 66.210891,145.28722 119.34788,93.704914 169.87089,44.660102 230.75862,15.461998 303.56992,5.3630651 c 14.51931,-2.0138297 61.73068,-2.0138297 76.25,0 76.1411,10.5607759 139.68705,42.2521839 191.26936,95.3891649 49.04481,50.52302 78.24291,111.41074 88.34185,184.22204 2.01382,14.51932 2.01382,61.73069 0,76.25 -10.56078,76.1411 -42.25219,139.68705 -95.38918,191.26937 -49.35266,47.90871 -109.86483,77.48355 -179.16537,87.56566 -12.24874,1.78199 -55.07471,3.30086 -65.05666,2.3073 z M 208.43075,502.78677 c 0.32953,-2.23437 1.2226,-23.46875 1.98464,-47.1875 1.55673,-48.45423 4.406,-112.12943 6.32051,-141.25 1.49933,-22.80541 5.03012,-65.48777 5.45223,-65.90987 0.9731,-0.9731 60.55417,131.82396 86.36625,192.49707 l 7.32256,17.21222 25.52171,-0.33722 25.52172,-0.3372 3.153,-7.5 c 17.53435,-41.70868 66.36675,-151.34018 83.23845,-186.875 6.66215,-14.03168 6.84377,-14.27051 7.60496,-10 2.3098,12.95874 7.38129,100.26858 10.12876,174.375 1.04504,28.1875 2.23666,57.57813 2.64804,65.3125 l 0.74796,14.0625 33.0669,0 33.06689,0 -0.71141,-10.3125 c -0.39129,-5.67187 -1.56564,-26.34375 -2.60967,-45.9375 -5.56022,-104.35093 -13.85108,-209.27505 -23.23615,-294.0625 l -1.48738,-13.4375 -30.7304,0.013 -30.7304,0.013 -10.15578,19.04955 c -18.65992,35.00112 -48.56912,98.94437 -77.3182,165.29955 -8.04239,18.5625 -16.13074,37.19675 -17.9741,41.40945 l -3.35157,7.65944 -14.25863,-32.65944 C 294.9828,268.23099 257.67413,188.51469 241.35367,158.72427 l -8.21764,-15 -31.31636,-0.3339 -31.31638,-0.3339 -0.65465,2.8339 c -0.96129,4.16128 -6.42946,54.88534 -9.33395,86.5839 -5.39945,58.92763 -10.88489,136.82105 -15.00875,213.125 -1.39336,25.78125 -2.71611,50.10938 -2.93946,54.0625 l -0.40609,7.1875 32.83563,0 32.83561,0 0.59912,-4.0625 z"
       style="fill:#fee890" />
    <path
       inkscape:connector-curvature="0"
       id="path3464"
       d="M 321.69492,642.36184 C 241.31548,635.41646 174.73872,605.95824 119.96535,553.10254 67.688566,502.656 35.342357,438.8017 24.666601,364.97427 c -2.981944,-20.62142 -2.981944,-63.12857 0,-83.75 C 34.788137,211.22954 64.0638,150.72556 111.69166,101.36971 162.13819,49.092924 225.99249,16.746715 299.81992,6.0709591 c 20.62142,-2.9819442 63.12857,-2.9819442 83.75,0 C 508.33697,24.1128 607.78589,107.34551 646.06889,225.76665 c 10.70323,33.10839 14.8234,60.16207 14.8234,97.33262 0,37.17055 -4.12017,64.22424 -14.8234,97.33263 -38.1827,118.11089 -138.85176,202.49402 -261.87397,219.50882 -14.05573,1.94402 -51.31684,3.38742 -62.5,2.42112 z M 208.40705,504.03677 c 0.41455,-1.54687 0.7615,-7.59375 0.77102,-13.4375 0.0266,-16.39427 4.81773,-130.69802 6.916,-165 1.83652,-30.02292 5.51352,-76.57935 6.09406,-77.15987 0.97287,-0.97289 60.55606,131.82809 86.35569,192.47237 l 7.312,17.1875 25.45048,0 25.45049,0 1.1823,-3.10966 c 6.09905,-16.04174 68.71646,-156.72306 85.96698,-193.14034 6.11391,-12.907 6.23023,-13.05233 7.00292,-8.75 2.3729,13.21215 7.95389,111.61483 10.74056,189.375 0.7145,19.9375 1.63499,42.57813 2.04554,50.3125 l 0.74645,14.0625 33.0669,0 33.06689,0 -0.71141,-10.3125 c -0.39129,-5.67187 -1.56564,-26.34375 -2.60967,-45.9375 -5.56022,-104.35093 -13.85108,-209.27505 -23.23615,-294.0625 l -1.48738,-13.4375 -30.7483,0 -30.74832,0 -10.77751,20.3125 c -18.89487,35.61137 -47.92991,97.74965 -76.66065,164.0625 -23.80705,54.94859 -21.48995,50.13938 -22.54925,46.80184 -1.22054,-3.84559 -30.90932,-71.28337 -46.0527,-104.6083 -17.5169,-38.54812 -44.22339,-93.79566 -53.62977,-110.94354 l -8.22819,-15 -31.31636,-0.3339 -31.31638,-0.3339 -0.65465,2.8339 c -0.96665,4.1845 -6.46427,55.01062 -9.36539,86.5839 -5.47163,59.54894 -13.0253,169.36617 -16.2502,236.25 -0.72927,15.125 -1.5296,29.89063 -1.7785,32.8125 l -0.45254,5.3125 32.82567,0 32.82566,0 0.75371,-2.8125 z"
       style="fill:#fee16f" />
    <path
       inkscape:connector-curvature="0"
       id="path3466"
       d="M 316.18673,641.7012 C 222.38527,634.50629 133.84811,583.75136 79.860063,506.22427 -1.7707065,389.0021 3.7546597,232.7596 93.453117,121.84927 157.9749,42.069395 260.64445,-2.9644221 361.60905,4.2283807 c 81.3808,5.7976373 154.76097,39.6106233 209.47827,96.5258893 114.43895,119.03593 120.69723,302.24577 14.64041,428.595 -54.90941,65.41552 -134.81291,105.98538 -221.53281,112.48012 -18.91372,1.4165 -28.19274,1.39172 -48.00819,-0.12819 z M 208.42598,502.78677 c 0.32687,-2.23437 1.50775,-30.5 2.62415,-62.8125 2.76712,-80.09043 7.25469,-159.85341 10.43505,-185.47478 l 0.83474,-6.72479 18.65918,40.47479 c 16.43293,35.64566 53.97547,120.55287 69.43555,157.03728 l 5.42924,12.8125 25.45645,0 25.45645,0 1.13145,-2.97593 c 5.91891,-15.56792 69.54431,-158.66033 84.82683,-190.77407 7.21058,-15.15187 7.45911,-15.49252 8.20771,-11.25 2.41295,13.67502 8.07006,114.00284 10.74864,190.625 0.72101,20.625 1.63788,43.26563 2.0375,50.3125 l 0.72657,12.8125 33.06993,0 33.06991,0 -0.71141,-10.3125 c -0.39129,-5.67187 -1.56164,-26.34375 -2.60079,-45.9375 -5.46398,-103.02675 -13.86944,-209.36066 -23.24503,-294.0625 l -1.48738,-13.4375 -30.74717,0 -30.74716,0 -10.79712,20.3125 c -18.61213,35.01475 -47.82657,97.55109 -76.64333,164.0625 -8.04239,18.5625 -16.15881,37.26048 -18.0365,41.55107 l -3.41396,7.80107 -2.94938,-7.17607 c -5.46227,-13.29019 -42.13376,-95.70317 -54.08685,-121.55107 -14.82016,-32.04778 -37.4906,-78.20728 -45.89022,-93.4375 l -6.37683,-11.5625 -31.17483,0 -31.17483,0 -0.64927,2.8125 c -0.96232,4.16848 -6.46649,55.07179 -9.36002,86.5625 -5.47163,59.54894 -13.0253,169.36617 -16.2502,236.25 -0.72927,15.125 -1.5296,29.89063 -1.7785,32.8125 l -0.45254,5.3125 32.91481,0 32.91481,0 0.59435,-4.0625 z"
       style="fill:#fedc52" />
    <path
       inkscape:connector-curvature="0"
       id="path3468"
       d="M 318.87257,641.84897 C 188.94047,631.79302 79.611856,546.71117 38.58634,423.72427 20.446077,369.34312 17.430463,309.59742 29.974186,253.09927 54.125008,144.32161 134.53283,55.528945 241.06992,19.990697 295.45107,1.8504349 355.19677,-1.1651789 411.69492,11.378544 508.96175,32.973734 592.436,101.13691 633.10875,192.18007 c 28.07093,62.83484 35.23253,133.6927 20.30689,200.9192 -28.8897,130.12203 -138.2031,229.84587 -270.47072,246.74355 -18.89397,2.41378 -47.30958,3.30349 -64.07235,2.00615 z M 208.42598,502.78677 c 0.32687,-2.23437 1.50775,-30.5 2.62415,-62.8125 2.76712,-80.09043 7.25469,-159.85341 10.43505,-185.47478 l 0.83474,-6.72479 18.65918,40.47479 c 16.43293,35.64566 53.97547,120.55287 69.43555,157.03728 l 5.42924,12.8125 25.45645,0 25.45645,0 1.13145,-2.97593 c 5.91891,-15.56792 69.54431,-158.66033 84.82683,-190.77407 7.21058,-15.15187 7.45911,-15.49252 8.20771,-11.25 2.41295,13.67502 8.07006,114.00284 10.74864,190.625 0.72101,20.625 1.63788,43.26563 2.0375,50.3125 l 0.72657,12.8125 33.06993,0 33.06991,0 -0.71141,-10.3125 c -0.39129,-5.67187 -1.56164,-26.34375 -2.60079,-45.9375 -5.46398,-103.02675 -13.86944,-209.36066 -23.24503,-294.0625 l -1.48738,-13.4375 -30.74717,0 -30.74716,0 -10.79712,20.3125 c -18.61213,35.01475 -47.82657,97.55109 -76.64333,164.0625 -8.04239,18.5625 -16.15881,37.26048 -18.0365,41.55107 l -3.41396,7.80107 -2.94938,-7.17607 c -5.46227,-13.29019 -42.13376,-95.70317 -54.08685,-121.55107 -14.82016,-32.04778 -37.4906,-78.20728 -45.89022,-93.4375 l -6.37683,-11.5625 -31.17483,0 -31.17483,0 -0.64927,2.8125 c -0.96232,4.16848 -6.46649,55.07179 -9.36002,86.5625 -5.47163,59.54894 -13.0253,169.36617 -16.2502,236.25 -0.72927,15.125 -1.5296,29.89063 -1.7785,32.8125 l -0.45254,5.3125 32.91481,0 32.91481,0 0.59435,-4.0625 z"
       style="fill:#fed42f" />
    <path
       sodipodi:nodetypes="ssssssssss"
       inkscape:connector-curvature="0"
       id="path3470"
       d="M 321.69492,641.83374 C 208.56718,634.36916 108.46895,568.59634 57.40459,468.17309 33.574604,421.30901 22.751375,375.99814 22.751375,323.09927 c 0,-52.89886 10.823229,-98.20973 34.653215,-145.07381 C 101.2297,91.838939 183.68838,29.051526 277.94492,10.09702 c 40.14812,-8.0735808 87.35187,-8.0735808 127.5,0 94.25653,18.954506 176.71521,81.741919 220.54032,167.92844 23.82999,46.86408 34.65321,92.17495 34.65321,145.07381 0,52.89887 -10.82322,98.20974 -34.65321,145.07382 -57.46231,113.00547 -178.3087,181.97336 -304.29032,173.66065 z"
       style="fill:#44ccff;fill-opacity:1" />
  </g>
  <path
     style="fill:#000000;fill-rule:evenodd;stroke:none;stroke-width:1px;stroke-linecap:butt;stroke-linejoin:miter;stroke-opacity:1;fill-opacity:0.20512821"
     d="M 454.68555 126.85547 L 249.83203 201.69727 L 180.80078 517.27539 L 305.56055 642.03516 C 430.24307 648.81699 549.34548 580.10539 606.26172 468.17383 C 630.09171 421.30975 640.91406 375.99848 640.91406 323.09961 C 640.91406 319.68368 640.8682 316.30042 640.77734 312.94531 L 454.68555 126.85547 z "
     id="path3420" />
  <text
     xml:space="preserve"
     style="font-style:normal;font-weight:normal;font-size:539.98876953px;line-height:125%;font-family:sans-serif;letter-spacing:0px;word-spacing:0px;fill:#ffffff;fill-opacity:1;stroke:none;stroke-width:1px;stroke-linecap:butt;stroke-linejoin:miter;stroke-opacity:1"
     x="132.52696"
     y="519.82196"
     id="text3557"
     sodipodi:linespacing="125%"><tspan
       sodipodi:role="line"
       id="tspan3559"
       x="132.52696"
       y="519.82196"
       style="font-style:normal;font-variant:normal;font-weight:bold;font-stretch:normal;font-family:'DejaVu Sans';-inkscape-font-specification:'DejaVu Sans';fill:#ffffff">E</tspan></text>
</svg>
